<svg version="1.1" xmlns="http://www.w3.org/2000/svg" viewBox="0 0 641.4000091552734 626.5999946594238" width="1282.8000183105469" height="1253.1999893188477">
  <!-- svg-source:excalidraw -->
  
  <defs>
    <style class="style-fonts">
      @font-face {
        font-family: "Virgil";
        src: url("https://excalidraw.com/Virgil.woff2");
      }
      @font-face {
        font-family: "Cascadia";
        src: url("https://excalidraw.com/Cascadia.woff2");
      }
      @font-face {
        font-family: "Assistant";
        src: url("https://excalidraw.com/Assistant-Regular.woff2");
      }
    </style>
    
  </defs>
  <rect x="0" y="0" width="641.4000091552734" height="626.5999946594238" fill="#ffffff"></rect><g stroke-linecap="round" transform="translate(10 291.39999771118164) rotate(0 113.9937515258789 21.899999618530273)"><path d="M-0.17 2.46 C87.81 1.76, 180.8 0.59, 225.86 -1.5 M1.13 1.11 C70.18 -1.47, 140.26 -1.81, 228.19 -1.21 M225.89 0.4 C223.96 11.13, 229.4 24.13, 225.95 46.94 M226.49 1.05 C227.49 17.17, 226.68 31.54, 226.43 43.96 M226.92 43.65 C177.13 47.99, 128.68 43.68, 1.24 45.67 M227.3 42.25 C156.09 41.35, 82.61 40.98, -0.78 44.33 M1.54 43.4 C-2.51 26.67, 0.26 10.03, 0.91 0.85 M-0.58 42.24 C-0.97 30.24, 0.95 17.95, -1.39 1.44" stroke="#1e1e1e" stroke-width="4" fill="none"></path></g><g transform="translate(39.506446838378906 301.7999973297119) rotate(0 84.4873046875 11.5)"><text x="84.4873046875" y="18.400390625" font-family="Helvetica, Segoe UI Emoji" font-size="20px" fill="#1e1e1e" text-anchor="middle" style="white-space: pre;" direction="ltr" dominant-baseline="alphabetic">Executive Function</text></g><g stroke-linecap="round" transform="translate(368.5875015258789 10) rotate(0 91.10625457763672 21.899999618530273)"><path d="M-3.67 0.44 C46.92 -3.56, 93.89 -4.38, 182.57 0.48 M-0.3 1.41 C66.5 -1.34, 134.66 -3.78, 180.86 -1 M178.63 0.95 C183.6 17.52, 179.71 30.67, 184.73 45.36 M181.38 1.27 C179.9 15.06, 180 30.79, 180.57 44.9 M180.77 46.01 C116.71 40.8, 52.81 45.84, 0.65 39.92 M182.43 44.87 C141.86 41.13, 103.43 41.12, 1.62 41.89 M-3.34 43.35 C-0.91 32.83, 0.57 23.53, -0.05 2.84 M-0.35 43.34 C1.82 28.97, -1.14 14.92, -0.18 1.21" stroke="#1e1e1e" stroke-width="4" fill="none"></path></g><g transform="translate(390.7728576660156 20.399999618530273) rotate(0 68.9208984375 11.5)"><text x="68.9208984375" y="18.400390625" font-family="Helvetica, Segoe UI Emoji" font-size="20px" fill="#1e1e1e" text-anchor="middle" style="white-space: pre;" direction="ltr" dominant-baseline="alphabetic">Self-awareness</text></g><g stroke-linecap="round" transform="translate(398.9000053405762 103.79999923706055) rotate(0 60.79375076293945 29)"><path d="M-1.27 -0.93 C42.76 -2.02, 90.85 0.21, 124.34 2.64 M-0.71 1.02 C44.61 -3.14, 87.4 -2.72, 121.87 -1.05 M123.44 3.75 C118.51 21.12, 123.07 37.52, 123.58 55 M119.93 -0.26 C119.54 20.61, 119.46 42, 122.77 57.37 M121.52 55.16 C87.09 61.54, 50.33 55.47, -3.45 56.38 M120.17 58.64 C95.22 59.92, 72.29 57.39, -1.18 58.77 M-0.58 57.59 C1.88 42.03, 0.92 27.2, 1.84 -1.16 M1.57 58.33 C-1.19 46.55, 0.03 33.43, 1.59 -0.89" stroke="#1e1e1e" stroke-width="4" fill="none"></path></g><g transform="translate(419.6644592285156 121.29999923706055) rotate(0 40.029296875 11.5)"><text x="40.029296875" y="18.400390625" font-family="Helvetica, Segoe UI Emoji" font-size="20px" fill="#1e1e1e" text-anchor="middle" style="white-space: pre;" direction="ltr" dominant-baseline="alphabetic">Inhibition</text></g><g stroke-linecap="round" transform="translate(294.71250915527344 197.5999984741211) rotate(0 164.9812469482422 21.899999618530273)"><path d="M-1.7 -1.2 C102.84 1.38, 207.08 2.86, 331.74 -0.4 M0.16 -0.97 C121.39 -2.99, 244.81 -3.03, 330.1 -1.23 M327.92 3.14 C332.89 15.74, 332.36 25.35, 332.07 42.13 M328.4 0.16 C327.59 17.02, 330.42 31.2, 329.88 43.08 M330.96 45.3 C213.15 37.95, 93.1 39.49, -2.48 44.1 M329.34 44.22 C214.43 43.93, 95.89 45.76, -0.14 42.66 M0.91 44.65 C0.08 34, 1.97 17.36, -3.11 -0.71 M-1.39 45.24 C-0.86 32.89, 0.9 18.67, 1.3 0.98" stroke="#1e1e1e" stroke-width="4" fill="none"></path></g><g transform="translate(331.5003967285156 207.99999809265137) rotate(0 128.193359375 11.5)"><text x="128.193359375" y="18.400390625" font-family="Helvetica, Segoe UI Emoji" font-size="20px" fill="#1e1e1e" text-anchor="middle" style="white-space: pre;" direction="ltr" dominant-baseline="alphabetic">Non-Verbal Working Memory</text></g><g stroke-linecap="round" transform="translate(320.8187561035156 291.39999771118164) rotate(0 138.875 21.899999618530273)"><path d="M0.28 0.37 C78.96 3.91, 155.68 1.42, 279.93 -1.1 M-1.04 -0.77 C97.77 2.22, 195.26 1.65, 278.11 0.71 M280.27 1.56 C279.29 14.25, 279.41 32.83, 280.28 40.49 M276.1 1.1 C278.25 11.94, 276.98 24.41, 278.86 43.76 M278.25 40.81 C211.48 44.91, 147.74 46.49, 1.65 41.61 M278.99 42.33 C184.69 45.72, 93.3 43.84, -0.18 43.58 M-0.05 46.64 C1.65 29.95, -3.31 17.72, -0.93 3.14 M-0.18 45.01 C2.2 29.04, 1.91 17.04, 1.04 -1.61" stroke="#1e1e1e" stroke-width="4" fill="none"></path></g><g transform="translate(353.1752014160156 301.7999973297119) rotate(0 106.5185546875 11.5)"><text x="106.5185546875" y="18.400390625" font-family="Helvetica, Segoe UI Emoji" font-size="20px" fill="#1e1e1e" text-anchor="middle" style="white-space: pre;" direction="ltr" dominant-baseline="alphabetic">Verbal Working Memory</text></g><g stroke-linecap="round" transform="translate(307.6062469482422 385.1999969482422) rotate(0 152.08750915527344 21.899999618530273)"><path d="M2 1.92 C79.81 -0.96, 157.9 -1.56, 305.66 0.34 M0.21 -0.76 C69.84 0.91, 139.74 2.89, 305.54 -0.74 M306.16 -3 C306.83 14.9, 307.26 29.84, 303.65 40.68 M305.36 -0.63 C303.37 12.76, 304.56 26.93, 302.76 44.53 M301.67 42.63 C193.58 39.84, 89.82 37.46, 0.92 42.47 M303.32 44.36 C203.35 38.37, 102.65 39.38, -0.15 44.13 M1.84 42.64 C-3.1 29.03, -0.92 18.8, 0.67 -2.78 M1.59 42.91 C1.38 28.5, 1.12 9.62, 1.27 1.91" stroke="#1e1e1e" stroke-width="4" fill="none"></path></g><g transform="translate(344.0736389160156 395.59999656677246) rotate(0 115.6201171875 11.5)"><text x="115.6201171875" y="18.400390625" font-family="Helvetica, Segoe UI Emoji" font-size="20px" fill="#1e1e1e" text-anchor="middle" style="white-space: pre;" direction="ltr" dominant-baseline="alphabetic">Emotional Self-Regulation</text></g><g stroke-linecap="round" transform="translate(366.1125030517578 478.99999618530273) rotate(0 93.58125305175781 21.899999618530273)"><path d="M2.6 -0.59 C61.21 -3.9, 118.81 -2.01, 184.33 -2.7 M0.2 -1.79 C47.24 2.89, 95.42 0.94, 188.73 1.26 M189.27 -1.67 C190.13 11.54, 187.07 26.58, 187.48 40.51 M187.08 -0.72 C188.79 15.52, 186.26 31.85, 188.26 44.12 M183.54 44.24 C151.29 39.45, 112.42 40.45, 1.24 47.03 M186.96 42.13 C148.63 44.95, 110.35 45.7, 0.42 43.78 M-3.11 43.09 C-1.33 30.69, 0.26 8.52, 2.87 -0.35 M1.3 44.78 C0.34 26.4, 0.58 14.12, 0.55 0.45" stroke="#1e1e1e" stroke-width="4" fill="none"></path></g><g transform="translate(393.5560607910156 489.399995803833) rotate(0 66.1376953125 11.5)"><text x="66.1376953125" y="18.400390625" font-family="Helvetica, Segoe UI Emoji" font-size="20px" fill="#1e1e1e" text-anchor="middle" style="white-space: pre;" direction="ltr" dominant-baseline="alphabetic">Self-motivation</text></g><g stroke-linecap="round" transform="translate(287.9875030517578 572.7999954223633) rotate(0 171.7062530517578 21.899999618530273)"><path d="M1.87 -0.94 C127.08 0.98, 249.58 -1.11, 342.09 0.38 M0.31 0.61 C86.25 3.4, 171.05 4.9, 343.93 0.66 M345.94 -3.31 C343.35 6.74, 344.19 16.41, 345.62 46.16 M344.52 -0.04 C341.95 12.5, 344.47 23.86, 341.47 42.07 M344.83 41.92 C255.1 43.09, 165.93 46.44, -2.52 42.24 M343.26 43.61 C227.02 40.31, 111.17 39.99, 0.94 44.41 M-0.93 46.94 C1.35 29.14, 3.55 19.7, 2.42 3.18 M1.04 42.19 C0.7 34.51, -0.02 21.86, 1.16 -1.43" stroke="#1e1e1e" stroke-width="4" fill="none"></path></g><g transform="translate(325.7191467285156 583.1999950408936) rotate(0 133.974609375 11.5)"><text x="133.974609375" y="18.400390625" font-family="Helvetica, Segoe UI Emoji" font-size="20px" fill="#1e1e1e" text-anchor="middle" style="white-space: pre;" direction="ltr" dominant-baseline="alphabetic">Planning and Problem Solving</text></g><g stroke-linecap="round"><g transform="translate(135.31099999999992 291.4000009536742) rotate(0 113.73850000000004 -129.75)"><path d="M-1 1.43 C20.41 -42.48, 90.24 -217.76, 128 -261.48 C165.77 -305.21, 208.94 -260.99, 225.59 -260.9 M3.66 -0.26 C24.75 -44.04, 87.99 -215.88, 125.94 -258.93 C163.9 -301.98, 214.28 -258.52, 231.4 -258.55" stroke="#1e1e1e" stroke-width="4" fill="none"></path></g><g transform="translate(135.31099999999992 291.4000009536742) rotate(0 113.73850000000004 -129.75)"><path d="M207.42 -258.1 C212.11 -259.66, 219.66 -258.09, 230.35 -258.35 M207.34 -258.85 C212.44 -257.87, 217.3 -258.05, 230.65 -258.03" stroke="#1e1e1e" stroke-width="4" fill="none"></path></g><g transform="translate(135.31099999999992 291.4000009536742) rotate(0 113.73850000000004 -129.75)"><path d="M213.13 -274.22 C216.31 -271.2, 222.22 -265.03, 230.35 -258.35 M213.05 -274.97 C216.99 -270.57, 220.65 -267.36, 230.65 -258.03" stroke="#1e1e1e" stroke-width="4" fill="none"></path></g></g><mask></mask><g stroke-linecap="round"><g transform="translate(140.72000000000003 291.4000009536742) rotate(0 126.19000000000005 -82.85000000000002)"><path d="M0.33 -1.98 C20.56 -30.07, 78.31 -139.57, 120.38 -167.1 C162.46 -194.63, 230.73 -166.98, 252.78 -167.17 M-2.94 3.11 C18.28 -24.75, 83.4 -136.24, 125.76 -164.24 C168.11 -192.23, 229.92 -164.4, 251.19 -164.86" stroke="#1e1e1e" stroke-width="4" fill="none"></path></g><g transform="translate(140.72000000000003 291.4000009536742) rotate(0 126.19000000000005 -82.85000000000002)"><path d="M225.16 -161.81 C232.06 -161.37, 238.52 -162.61, 249.4 -164.38 M227.36 -159.83 C235.45 -161.36, 242.83 -162.85, 250.77 -164.22" stroke="#1e1e1e" stroke-width="4" fill="none"></path></g><g transform="translate(140.72000000000003 291.4000009536742) rotate(0 126.19000000000005 -82.85000000000002)"><path d="M228.09 -178.66 C234.3 -173.76, 239.99 -170.55, 249.4 -164.38 M230.3 -176.68 C237.52 -172.39, 243.89 -168.05, 250.77 -164.22" stroke="#1e1e1e" stroke-width="4" fill="none"></path></g></g><mask></mask><g stroke-linecap="round"><g transform="translate(156.94499999999994 291.4000009536742) rotate(0 65.98400000000004 -35.94999999999999)"><path d="M-1.89 -1.4 C15.8 -13.3, 84.09 -61.2, 106.44 -73.37 C128.8 -85.54, 127.88 -74.87, 132.25 -74.41 M2.28 4.01 C19.6 -7.36, 83.04 -57.76, 104.42 -70.54 C125.81 -83.32, 125.74 -71.76, 130.59 -72.66" stroke="#1e1e1e" stroke-width="4" fill="none"></path></g><g transform="translate(156.94499999999994 291.4000009536742) rotate(0 65.98400000000004 -35.94999999999999)"><path d="M116.99 -73.06 C121 -72.84, 124.55 -72.49, 131.19 -71.45 M117.9 -72.92 C120.39 -72.84, 123.83 -72.63, 130.06 -72.75" stroke="#1e1e1e" stroke-width="4" fill="none"></path></g><g transform="translate(156.94499999999994 291.4000009536742) rotate(0 65.98400000000004 -35.94999999999999)"><path d="M120.4 -81.25 C123.28 -78.5, 125.77 -75.59, 131.19 -71.45 M121.3 -81.11 C123 -78.97, 125.6 -76.71, 130.06 -72.75" stroke="#1e1e1e" stroke-width="4" fill="none"></path></g></g><mask></mask><g stroke-linecap="round"><g transform="translate(238.48800000000006 313.30000095367427) rotate(0 38.265499999999975 0)"><path d="M0.4 -1.47 C13.52 -1.65, 64.01 -2.97, 76.81 -2.51 M-2.83 3.91 C10.11 4.1, 61.63 0.99, 74.73 -0.25" stroke="#1e1e1e" stroke-width="4" fill="none"></path></g><g transform="translate(238.48800000000006 313.30000095367427) rotate(0 38.265499999999975 0)"><path d="M50.88 10.21 C55.49 8.06, 63.51 7.08, 73.71 1.32 M51.18 10.54 C59.75 6.81, 67.61 2.32, 73.95 -0.17" stroke="#1e1e1e" stroke-width="4" fill="none"></path></g><g transform="translate(238.48800000000006 313.30000095367427) rotate(0 38.265499999999975 0)"><path d="M49.62 -6.84 C54.44 -5.02, 62.75 -2.04, 73.71 1.32 M49.92 -6.52 C59.01 -4.06, 67.34 -2.36, 73.95 -0.17" stroke="#1e1e1e" stroke-width="4" fill="none"></path></g></g><mask></mask><g stroke-linecap="round"><g transform="translate(156.94499999999994 335.20000095367436) rotate(0 72.43049999999994 35.950000000000045)"><path d="M0.28 -2.51 C18 9.93, 82.17 61.03, 106.71 73.2 C131.24 85.36, 140.76 70.39, 147.49 70.47 M-3.01 2.3 C14.36 14.03, 79.81 57.14, 104.83 68.89 C129.85 80.64, 139.77 72.86, 147.11 72.81" stroke="#1e1e1e" stroke-width="4" fill="none"></path></g><g transform="translate(156.94499999999994 335.20000095367436) rotate(0 72.43049999999994 35.950000000000045)"><path d="M128.62 83.08 C136.57 81.34, 139.95 77.96, 148.33 73.56 M129.95 83.23 C135.49 78.97, 141.39 75.74, 146.31 73.34" stroke="#1e1e1e" stroke-width="4" fill="none"></path></g><g transform="translate(156.94499999999994 335.20000095367436) rotate(0 72.43049999999994 35.950000000000045)"><path d="M126.23 70.02 C134.87 72.38, 138.99 73.1, 148.33 73.56 M127.57 70.17 C133.84 70.47, 140.57 71.81, 146.31 73.34" stroke="#1e1e1e" stroke-width="4" fill="none"></path></g></g><mask></mask><g stroke-linecap="round"><g transform="translate(140.72000000000003 335.20000095367436) rotate(0 109.79650000000004 82.85000000000002)"><path d="M0.66 1.3 C21.43 29.09, 88.04 136.58, 124.9 164.27 C161.75 191.97, 205.82 167, 221.79 167.47 M-2.42 -0.47 C18.19 27.91, 86.82 139.9, 124.08 167.13 C161.35 194.35, 204.88 163.78, 221.17 162.89" stroke="#1e1e1e" stroke-width="4" fill="none"></path></g><g transform="translate(140.72000000000003 335.20000095367436) rotate(0 109.79650000000004 82.85000000000002)"><path d="M202.13 179.81 C206.51 174.79, 214.98 169.34, 222.17 161.39 M200.38 177.8 C207.53 172.58, 214.53 167.75, 221.76 162.58" stroke="#1e1e1e" stroke-width="4" fill="none"></path></g><g transform="translate(140.72000000000003 335.20000095367436) rotate(0 109.79650000000004 82.85000000000002)"><path d="M197.13 163.46 C202.92 163.5, 212.94 163.11, 222.17 161.39 M195.38 161.45 C204.23 161.96, 212.98 162.9, 221.76 162.58" stroke="#1e1e1e" stroke-width="4" fill="none"></path></g></g><mask></mask><g stroke-linecap="round"><g transform="translate(135.31099999999992 335.20000095367436) rotate(0 73.43849999999998 129.75000000000003)"><path d="M2.63 -1.43 C24.16 41.9, 105.65 217.55, 129.87 261.27 C154.1 304.99, 145.48 260.94, 147.97 260.89 M0.61 3.97 C21.91 46.38, 104.47 215.19, 128.83 257.21 C153.18 299.24, 144.19 256.36, 146.75 256.12" stroke="#1e1e1e" stroke-width="4" fill="none"></path></g><g transform="translate(135.31099999999992 335.20000095367436) rotate(0 73.43849999999998 129.75000000000003)"><path d="M149.11 266.04 C149.24 262.72, 148.19 258.66, 147.26 255.72 M149.22 265.32 C148.24 262.22, 147.89 258.47, 146.73 255.94" stroke="#1e1e1e" stroke-width="4" fill="none"></path></g><g transform="translate(135.31099999999992 335.20000095367436) rotate(0 73.43849999999998 129.75000000000003)"><path d="M142.55 265.72 C144.81 262.44, 145.88 258.48, 147.26 255.72 M142.66 265.01 C144.07 262.02, 146.09 258.39, 146.73 255.94" stroke="#1e1e1e" stroke-width="4" fill="none"></path></g></g><mask></mask></svg>